<svg width="3432" height="1308" viewBox="0 0 3432 1308" fill="none" xmlns="http://www.w3.org/2000/svg">
<rect width="3432" height="1308" fill="#6B8BBC"/>
<g filter="url(#filter0_d_1275_2779)">
<path d="M1398.78 597.097C1400 597.366 1408 599 1409.56 599.177C1411.12 599.354 1413.08 599.851 1414.73 600.255C1416.38 600.659 1417.65 601.119 1418.41 601.446C1419.17 601.773 1419.42 601.944 1419.6 602.217C1419.96 602.786 1420.18 603.838 1420.01 605.146C1419.94 605.749 1419.85 606.247 1419.61 606.685C1419.14 607.559 1418.57 608.358 1417.75 608.815C1417.31 609.058 1416.79 609.246 1415.17 609.33C1413.55 609.413 1410.92 609.392 1407.91 609.155C1404.9 608.919 1401.62 608.48 1399.74 608.196C1397.87 607.912 1397.41 607.786 1396.84 607.551C1396.28 607.316 1395.63 606.982 1394.81 606.254C1393.99 605.527 1393.03 604.44 1392.49 603.724C1391.96 603.008 1391.83 602.677 1391.8 602.313C1391.75 601.575 1391.75 600.876 1391.97 600.318C1392.2 599.76 1392.75 599.067 1393.66 598.396C1394.1 598.068 1394.54 597.796 1395.02 597.542C1395.5 597.288 1396 597.058 1396.52 596.943C1397.04 596.828 1397.56 596.828 1398.78 597.097Z" fill="#99E981"/>
<path d="M1398.78 597.097C1400 597.366 1408 599 1409.56 599.177C1411.12 599.354 1413.08 599.851 1414.73 600.255C1416.38 600.659 1417.65 601.119 1418.41 601.446C1419.17 601.773 1419.42 601.944 1419.6 602.217C1419.96 602.786 1420.18 603.838 1420.01 605.146C1419.94 605.749 1419.85 606.247 1419.61 606.685C1419.14 607.559 1418.57 608.358 1417.75 608.815C1417.31 609.058 1416.79 609.246 1415.17 609.33C1413.55 609.413 1410.92 609.392 1407.91 609.155C1404.9 608.919 1401.62 608.48 1399.74 608.196C1397.87 607.912 1397.41 607.786 1396.84 607.551C1396.28 607.316 1395.63 606.982 1394.81 606.254C1393.99 605.527 1393.03 604.44 1392.49 603.724C1391.96 603.008 1391.83 602.677 1391.8 602.313C1391.75 601.575 1391.75 600.876 1391.97 600.318C1392.2 599.76 1392.75 599.067 1393.66 598.396C1394.1 598.068 1394.54 597.796 1395.02 597.542C1395.5 597.288 1396 597.058 1396.52 596.943C1397.04 596.828 1397.56 596.828 1398.78 597.097Z" stroke="black" stroke-width="0.1" stroke-linecap="round"/>
</g>
<defs>
<filter id="filter0_d_1275_2779" x="1389.73" y="595.82" width="32.395" height="16.6044" filterUnits="userSpaceOnUse" color-interpolation-filters="sRGB">
<feFlood flood-opacity="0" result="BackgroundImageFix"/>
<feColorMatrix in="SourceAlpha" type="matrix" values="0 0 0 0 0 0 0 0 0 0 0 0 0 0 0 0 0 0 127 0" result="hardAlpha"/>
<feOffset dy="1"/>
<feGaussianBlur stdDeviation="1"/>
<feComposite in2="hardAlpha" operator="out"/>
<feColorMatrix type="matrix" values="0 0 0 0 0 0 0 0 0 0 0 0 0 0 0 0 0 0 0.25 0"/>
<feBlend mode="normal" in2="BackgroundImageFix" result="effect1_dropShadow_1275_2779"/>
<feBlend mode="normal" in="SourceGraphic" in2="effect1_dropShadow_1275_2779" result="shape"/>
</filter>
</defs>
</svg>
